<svg xmlns="http://www.w3.org/2000/svg" width="256" height="256"><path fill-opacity=".016" d="M0 128.004v128.004l128.25-.254 128.25-.254.254-127.75L257.008 0H0v128.004m.485.496c0 70.4.119 99.053.265 63.672.146-35.38.146-92.98 0-128C.604 29.153.485 58.1.485 128.5" fill="#1976D2" fill-rule="evenodd"/><path fill-opacity=".299" d="M0 127.511v39.497l128.25-.254 128.25-.254.261-39.5.262-39.5-128.512.258L0 88.015v39.496m.456-.011c0 22 .132 30.858.293 19.683.161-11.174.161-29.174 0-40C.587 96.358.455 105.5.456 127.5M76 94.345c0 3.471-.428 5.655-1.108 5.655-.61 0-4.034-2.328-7.609-5.173-7.625-6.067-5.271-6.783-23.033 7.009C33.503 110.18 32 111.709 32 114.296c0 2.22.309 2.704 1.25 1.959 15.967-12.646 26.141-20.252 27.075-20.24.646.008 4.465 2.821 8.486 6.25 4.02 3.429 9.42 7.705 12 9.503l4.689 3.267.332-2.678c.251-2.025-.42-3.266-2.75-5.09C80.223 105.03 80 104.401 80 98.583c0-5.003-.405-6.639-2-8.083-1.978-1.79-2-1.747-2 3.845m-.212 28.284L75.5 132.5l-15.25.276-15.25.276v-9.526c0-5.239-.38-9.526-.845-9.526-.465 0-1.607.842-2.538 1.87-1.397 1.544-1.642 3.597-1.405 11.75l.288 9.88 19.75.271 19.75.271v-10.866c0-9.527-.242-11.085-1.962-12.642-1.936-1.752-1.967-1.642-2.25 8.095m35.681-3.579c-.95 1.538.351 2.53 1.635 1.246.718-.718.735-1.277.052-1.699-.56-.346-1.319-.142-1.687.453m65.531.391c0 .857.45 1.559 1 1.559s1-.423 1-.941-.45-1.219-1-1.559c-.55-.34-1 .084-1 .941m-78 .265c-5.072 1.854-7.457 7.703-5.008 12.28 1.496 2.794 7.142 4.365 10.382 2.889 3.858-1.757 3.221-2.509-2.067-2.438-4.056.054-4.895-.294-6.19-2.572-1.356-2.384-1.328-2.894.293-5.368 1.609-2.456 2.239-2.684 6.191-2.239 4.833.545 5.871-.748 1.834-2.283-2.798-1.063-3.206-1.084-5.435-.269m23-.012c-.825.295-2.062 1.245-2.75 2.112-1.49 1.878-1.707 14.194-.25 14.194.55 0 1-1.575 1-3.5 0-3.222.238-3.5 3-3.5 1.65 0 3-.45 3-1s-1.381-1-3.07-1c-2.611 0-3.021-.336-2.75-2.25.239-1.679 1.081-2.324 3.32-2.543 4.931-.482 6.35-1.278 4-2.244-2.323-.955-3.429-1.009-5.5-.269m-11 9.806c0 3.667.436 6.5 1 6.5.564 0 1-2.833 1-6.5s-.436-6.5-1-6.5c-.564 0-1 2.833-1 6.5m22-4.5c-3.706 3.706-2.012 9.285 3.2 10.541 2.093.504 3.272.078 5.25-1.9 3.191-3.191 3.213-5.069.095-8.186-2.975-2.976-5.87-3.13-8.545-.455m14.932 4.748l.432 6.752.614-4.745c.689-5.334 1.944-7.107 4.666-6.59 1.42.27 1.973 1.506 2.356 5.266.592 5.822 3 7.602 3 2.217 0-7.394-3.243-11.226-7.337-8.67-1.496.935-2.177.979-2.451.158-1.044-3.131-1.665-.407-1.28 5.612m17.568-5.553c-4.344 2.463-4.721 6.7-.865 9.732 3.151 2.479 4.358 2.571 6.924.526 1.84-1.466 1.781-1.517-1.12-.962-4.367.835-7.274-2.363-5.562-6.12 1.044-2.291 1.63-2.55 4.659-2.059 3.508.569 4.788-.59 1.882-1.705-2.227-.855-3.618-.717-5.918.588M177 129.5c0 3.667.436 6.5 1 6.5.564 0 1-2.833 1-6.5s-.436-6.5-1-6.5c-.564 0-1 2.833-1 6.5m7.655-4.671c-4.265 4.712.193 12.928 5.48 10.099 1.679-.899 2.369-.917 2.651-.071 1.063 3.189 2.214.404 2.214-5.357 0-5.892-1.118-8.452-2.292-5.25-.366 1-.723 1-1.783 0-1.882-1.775-4.345-1.548-6.27.579m-50.412 1.328c-2.121 2.121-1.48 5.778 1.227 7.011 3.405 1.552 5.734-.451 5.331-4.583-.239-2.449-.818-3.145-2.808-3.378-1.379-.161-3.066.266-3.75.95m50.792.777c-1.406 2.628-1.306 3.652.536 5.495 3.751 3.75 9.034-.562 6.497-5.303-1.445-2.698-5.63-2.813-7.033-.192M78.673 147.75c29.246.147 77.396.147 107 0 29.605-.147 5.677-.268-53.173-.268s-83.072.121-53.827.268" fill="#1976D2" fill-rule="evenodd"/><path fill-opacity=".414" d="M0 124.5c0 20.075.355 36.5.789 36.5.435 0 .772 1.238.75 2.75-.038 2.647.173 2.761 5.635 3.048 5.235.274 5.708.119 6.114-2l.44-2.298.136 2.25c.075 1.238.638 2.25 1.253 2.25.648 0 .918-1.036.644-2.47-.26-1.358-.087-2.232.383-1.941.471.291.856 1.402.856 2.47 0 1.735.737 1.941 6.934 1.941 6.796 0 6.941-.054 7.35-2.75l.416-2.75.15 2.75c.129 2.356.58 2.75 3.15 2.75 2.366 0 3-.437 3-2.067 0-1.582-.45-1.925-1.916-1.46-1.054.335-2.148.232-2.432-.228-.285-.46.69-.816 2.165-.791 2.042.035 2.763.61 3.017 2.407.319 2.255.626 2.343 6.819 1.948 4.128-.262 6.857-.939 7.51-1.861.834-1.177.92-1.121.463.302-.49 1.522.149 1.75 4.905 1.75H64l.132-3.25.131-3.25.619 3.223c.476 2.481.948 3.017 2.054 2.326 1.247-.779 1.247-1.136 0-2.723-1.323-1.682-1.294-1.715.36-.416.987.776 1.564 2.013 1.281 2.75-.391 1.018.783 1.34 4.885 1.34 4.804 0 5.447-.248 5.832-2.25l.434-2.25.136 2.25c.124 2.044.639 2.25 5.636 2.25 3.611 0 5.5-.412 5.5-1.2 0-.933.267-.933 1.2 0 .66.66 3.329 1.2 5.93 1.2 4.111 0 4.788-.295 5.164-2.25l.434-2.25.136 2.25c.124 2.047.637 2.25 5.695 2.25 3.607 0 5.332-.367 4.914-1.044-.917-1.483 1.396-3.943 3.094-3.292 1.982.761.608 2.603-1.418 1.902-1.216-.421-1.139-.177.292.932 1.161.898 4.048 1.502 7.184 1.502 4.951 0 5.265-.153 5.659-2.75l.416-2.75.15 2.829.15 2.83 12.92-.33c7.105-.181 13.244-.656 13.642-1.055.398-.399.145-1.422-.561-2.273-1.081-1.303-1.025-1.447.358-.917.902.347 1.641 1.482 1.641 2.523 0 1.608.762 1.893 5.066 1.893 2.786 0 5.936-.466 7-1.035 1.333-.714 1.934-.714 1.934 0 0 .653 4.239 1.035 11.5 1.035H195v-3.073c0-2.332.402-2.996 1.667-2.75 2.185.423 2.964 2.823.916 2.823-.871 0-1.583.502-1.583 1.117 0 .624.882.886 2.001.593 1.101-.288 1.766-.143 1.479.323-.288.465 6.061.859 14.109.874l14.632.027-.466-2.437c-.256-1.34-.081-2.199.389-1.908.471.291.856 1.402.856 2.47 0 1.803.777 1.941 10.93 1.941 10.541 0 10.946-.08 11.364-2.25l.434-2.25.136 2.25c.075 1.238.638 2.25 1.253 2.25.648 0 .918-1.036.644-2.47-.26-1.358-.087-2.232.383-1.941.471.291.912 1.515.981 2.72.069 1.205.486.166.926-2.309.44-2.475.834-20.475.875-40L257 87.5l-90.75.288-90.75.288 2.75 2.045c2.487 1.85 2.75 2.642 2.75 8.275 0 5.617.295 6.513 3 9.104 1.941 1.86 3 3.867 3 5.687 0 3.115-1.104 3.598-3 1.313-.685-.825-1.64-1.5-2.122-1.5-.483 0-.878 5.625-.878 12.5V138H40v-10.885c0-10.507.087-10.942 2.5-12.523l2.5-1.638V132h30V107.437l-7.404-5.699-7.404-5.7-13.506 10.481C39.257 112.284 32.914 117 32.59 117c-.325 0-.572-1.463-.549-3.25.037-2.982 1.2-4.147 14.073-14.103l14.033-10.854 6.009 4.667c8.707 6.761 8.844 6.763 8.844.147V88H0v36.5m.453 0c0 20.35.133 28.533.296 18.185.163-10.349.162-26.999-.001-37C.585 95.683.452 104.15.453 124.5m57.151-12.91c-.808 2.105.091 3.41 2.348 3.41 2.237 0 3.306-2.342 1.77-3.878-1.594-1.594-3.406-1.388-4.118.468m53.55 7.848c.191.917.796 1.644 1.346 1.615 1.484-.079 1.212-2.316-.346-2.835-.841-.28-1.215.177-1 1.22m65.292-.351c-.369.598-.28 1.479.199 1.958 1.183 1.183 3.786-.538 2.924-1.933-.873-1.414-2.258-1.425-3.123-.025m-80.983 2.191c-3.827 3.292-3.878 9.108-.109 12.35 3.071 2.642 7.308 3.071 10.108 1.024 2.504-1.832 1.162-4.059-1.46-2.421-1.338.835-2.738.898-4.703.211-2.292-.801-2.855-1.653-3.109-4.704-.262-3.151.074-3.901 2.176-4.859 1.399-.638 3.721-.823 5.31-.424 3.56.893 3.71.886 4.075-.208.395-1.186-4.2-3.247-7.242-3.247-1.319 0-3.589 1.025-5.046 2.278m24.236-.498c-2.313 2.556-2.478 15.22-.199 15.22 1.048 0 1.5-1.056 1.5-3.5 0-3.237.23-3.5 3.059-3.5 1.785 0 2.802-.417 2.441-1-.34-.55-1.748-1-3.129-1-2.031 0-2.449-.429-2.191-2.25.258-1.815 1.057-2.311 4.132-2.564 4.765-.393 4.445-2.565-.44-2.985-2.408-.206-3.996.278-5.173 1.579M111 129.5c0 5.111.321 6.5 1.5 6.5s1.5-1.389 1.5-6.5-.321-6.5-1.5-6.5-1.5 1.389-1.5 6.5m21.655-4.671c-2.427 2.681-2.129 7.725.568 9.614 4.611 3.23 10.777.402 10.777-4.943 0-5.476-7.735-8.661-11.345-4.671M147 129.671c0 4.959.325 6.329 1.5 6.329 1.105 0 1.5-1.153 1.5-4.378 0-4.661 1.869-7.27 4.487-6.265 1.073.411 1.513 2.043 1.513 5.612 0 3.805.365 5.031 1.5 5.031 1.114 0 1.5-1.174 1.5-4.566 0-7.035-1.114-8.341-7.005-8.207l-4.995.114v6.33m17.223-5.114c-5.993 4.197.198 13.521 7.195 10.836 3.092-1.186 1.694-3.125-2.168-3.007-3.255.099-3.796-.209-4.095-2.33-.439-3.111 2.354-5.389 4.922-4.015 1.173.628 2.018.615 2.421-.038 1.874-3.031-4.438-4.134-8.275-1.446M176 129.5c0 5.111.321 6.5 1.5 6.5s1.5-1.389 1.5-6.5-.321-6.5-1.5-6.5-1.5 1.389-1.5 6.5m7.543-4.259c-3.826 5.463-.455 10.622 6.868 10.512l4.589-.07v-12.422l-4.957-.111c-4.049-.092-5.239.291-6.5 2.091m-48.972 1.33c-3.03 3.031-.799 6.883 3.624 6.256 2.973-.422 3.759-4.657 1.209-6.521-2.296-1.679-2.923-1.644-4.833.265m52.179-.491c-2.418 1.409-2.229 5.593.314 6.954 3.809 2.039 6.92-3.65 3.736-6.834-1.433-1.433-1.778-1.443-4.05-.12m-108.5 21.67c29.562.147 77.937.147 107.5 0 29.563-.147 5.375-.268-53.75-.268s-83.313.121-53.75.268m132.095 15.793c-.326.849-.311 1.824.031 2.167.343.343.624-.127.624-1.043 0-.917.477-1.667 1.059-1.667s.738.52.346 1.155c-.446.721-.274.882.457.43 1.275-.788.613-2.585-.952-2.585-.535 0-1.239.694-1.565 1.543m-161.266 1.04c.048 1.165.285 1.402.604.605.289-.722.253-1.585-.079-1.917-.332-.332-.568.258-.525 1.312m104 0c.048 1.165.285 1.402.604.605.289-.722.253-1.585-.079-1.917-.332-.332-.568.258-.525 1.312m15 0c.048 1.165.285 1.402.604.605.289-.722.253-1.585-.079-1.917-.332-.332-.568.258-.525 1.312" fill="#1976D2" fill-rule="evenodd"/><path fill-opacity=".408" d="M0 124.5C0 153.628.26 161 1.289 161c.75 0 1.273 1.151 1.25 2.75-.037 2.578.258 2.769 4.711 3.055 4.532.291 4.75.185 4.75-2.308 0-2.455.256-2.593 4.25-2.304 3.533.255 4.304.687 4.57 2.557.282 1.986.898 2.25 5.25 2.25 4.623 0 4.93-.159 4.93-2.56 0-2.348.312-2.535 3.75-2.25 3.012.249 3.813.753 4.07 2.56.281 1.981.9 2.25 5.18 2.25 4.28 0 4.899-.269 5.18-2.25.21-1.477 1.007-2.25 2.32-2.25 1.431 0 1.977.64 1.921 2.25-.073 2.062.366 2.25 5.25 2.25H64l.015-3.75c.009-2.062.346-3.267.75-2.677.404.59 1.522 1.363 2.485 1.719.963.355 1.75 1.559 1.75 2.677 0 1.771.641 2.031 5 2.031h5v-3.5c0-1.925.45-3.5 1-3.5s.947.338.882.75c-.066.412-.066 1.988 0 3.5.112 2.604.375 2.75 4.945 2.75 4.794 0 4.824-.02 4.386-3-.25-1.704.012-3 .607-3 .576 0 1.19 1.238 1.364 2.75.289 2.518.716 2.776 5.066 3.055 4.587.294 4.754.208 4.868-2.5.066-1.543.066-3.143 0-3.555-.065-.412.332-.75.882-.75s1 1.575 1 3.5v3.5h5.329c4.884 0 5.323-.188 5.25-2.25-.056-1.61.49-2.25 1.921-2.25 1.333 0 2 .667 2 2 0 1.708.767 2.044 5.25 2.302 5.041.29 5.25.201 5.25-2.25 0-1.735.544-2.552 1.7-2.552 1.322 0 1.433.267.5 1.2-3.157 3.157-1.397 3.8 10.407 3.8 9.45 0 11.509-.256 11.078-1.378-.667-1.739 1.16-3.622 3.515-3.622 1.253 0 1.8.759 1.8 2.5 0 2.333.333 2.5 5 2.5s5-.167 5-2.5c0-3.112 1.707-3.298 2.294-.25l.434 2.25.136-2.25c.187-3.087 2.136-2.859 2.136.25v2.5H193.867l.317-2.75c.251-2.182.832-2.75 2.816-2.75s2.565.568 2.816 2.75c.298 2.583.615 2.75 5.219 2.75 3.628 0 4.772-.34 4.4-1.308-.276-.72.361-2.304 1.417-3.521 1.773-2.044 1.977-2.078 2.687-.442.423.974.671 2.558.552 3.521-.181 1.465.609 1.75 4.846 1.75 4.734 0 5.063-.163 5.063-2.5 0-2 .5-2.5 2.5-2.5s2.5.5 2.5 2.5c0 2.333.333 2.5 5 2.5h5v-3.5c0-1.925.45-3.5 1-3.5s1 1.575 1 3.5c0 3.481.024 3.5 4.5 3.5 4.133 0 4.5-.204 4.5-2.5 0-2 .5-2.5 2.5-2.5 1.375 0 2.545.563 2.6 1.25.055.688.46.125.9-1.25s.846-18.7.9-38.5l.1-36-90.25.29c-88.321.284-90.202.33-88 2.16 1.882 1.564 2.25 2.866 2.25 7.953 0 5.497.289 6.339 3 8.755 2.347 2.091 3 3.507 3 6.507 0 4.108-.954 4.8-3.08 2.238-1.204-1.45-1.393-1.427-2.053.25-.399 1.016-.758 6.459-.797 12.097L81 138H39v-10.548c0-10.253.077-10.616 2.75-12.968 1.513-1.332 3.087-2.435 3.5-2.452.413-.018.75 4.468.75 9.968v10h28V107.321l-6.083-4.724c-3.345-2.598-6.607-4.916-7.25-5.153-.642-.236-7.176 4.292-14.519 10.063C38.804 113.278 32.616 118 32.398 118c-.219 0-.392-1.912-.386-4.25.011-3.678.448-4.537 3.25-6.387 1.781-1.175 8.137-6.013 14.125-10.75L60.275 88H0v36.5m.453 0c0 20.35.133 28.533.296 18.185.163-10.349.162-26.999-.001-37C.585 95.683.452 104.15.453 124.5M61 88.321c0 .176 2.925 2.664 6.5 5.529l6.5 5.209V88h-6.5c-3.575 0-6.5.144-6.5.321m-2.75 21.341c-1.494.603-1.674 4.958-.241 5.844 3.246 2.006 6.52-2.577 3.791-5.306-1.279-1.279-1.595-1.327-3.55-.538m52.473 9.088c-.218.412-.5 4.463-.628 9-.218 7.789-.114 8.25 1.87 8.25 1.994 0 2.091-.459 1.903-9-.144-6.525-.55-9-1.474-9-.702 0-1.454.338-1.671.75m65.41 8.209c-.189 8.589-.094 9.041 1.906 9.041 2.005 0 2.09-.419 1.783-8.737-.258-7.007-.635-8.797-1.906-9.041-1.339-.258-1.614 1.092-1.783 8.737m-81.544-4.882c-3.622 4.304-3.105 9.241 1.324 12.641 3.611 2.772 14.383.241 11.489-2.699-.807-.82-1.789-.8-3.709.075-2.152.981-3.057.897-5.152-.475-5.443-3.566-.797-11.423 5.152-8.713 1.92.875 2.902.895 3.709.075 1.667-1.693-2.072-3.981-6.504-3.981-2.927 0-4.273.656-6.309 3.077M119 121c-1.59 1.59-2 3.333-2 8.5 0 5.833.205 6.5 2 6.5 1.556 0 2-.667 2-3 0-2.667.333-3 3-3 2.333 0 3-.444 3-2s-.667-2-3-2c-1.898 0-3-.512-3-1.393 0-1.836 2.565-2.754 5.579-1.998 1.988.499 2.421.231 2.421-1.501 0-1.793-.598-2.108-4-2.108-2.667 0-4.667.667-6 2m15.315 2.007c-7.108 2.864-4.746 12.993 3.03 12.993 6.577 0 9.219-7.838 4.02-11.927-2.87-2.258-3.757-2.393-7.05-1.066M147 129c0 5.556.31 7 1.5 7 1.064 0 1.504-1.09 1.515-3.75.019-4.638 1.154-6.555 3.605-6.089 1.47.279 1.946 1.391 2.185 5.098.214 3.327.736 4.741 1.75 4.741 1.084 0 1.445-1.368 1.445-5.477 0-4.698-.346-5.704-2.433-7.071-1.892-1.24-2.892-1.348-4.5-.488-1.379.738-2.067.762-2.067.071 0-.569-.675-1.035-1.5-1.035-1.19 0-1.5 1.444-1.5 7m18.5-5.805c-1.1.624-2.331 1.623-2.735 2.22-1.393 2.058-.773 7.268 1.064 8.93 2.202 1.993 7.494 2.176 9.04.313 1.535-1.849.41-2.664-2.793-2.023-3.069.614-5.447-1.497-4.885-4.337.269-1.362 1.3-1.798 4.247-1.798 4.629 0 5.853-2.059 2.078-3.494-3.246-1.234-3.522-1.225-6.016.189m19.728.035c-2.263 1.091-3.911 4.918-3.345 7.77.691 3.485 3.277 4.923 8.737 4.857l5.38-.064v-6.337c0-6.397-1.053-8.487-3.327-6.599-.781.647-1.784.685-2.707.101-1.766-1.117-1.868-1.111-4.738.272m-50.844 4.212c-.971 2.529.071 5.049 2.214 5.356 2.678.385 4.75-2.127 3.917-4.75-.762-2.403-5.27-2.849-6.131-.606m51.179.359c-1.016 3.203.4 5.341 3.315 5.003 2.179-.253 2.622-.811 2.622-3.304 0-2.506-.439-3.051-2.664-3.308-1.915-.222-2.835.231-3.273 1.609M25 148c0 .66 36.333 1 107 1s107-.34 107-1c0-.66-36.333-1-107-1s-107 .34-107 1m11.158 17c0 1.375.227 1.938.504 1.25.278-.687.278-1.812 0-2.5-.277-.687-.504-.125-.504 1.25M14 165.5c0 .825.45 1.5 1 1.5s1-.675 1-1.5-.45-1.5-1-1.5-1 .675-1 1.5m3 0c0 .825.45 1.5 1 1.5s1-.675 1-1.5-.45-1.5-1-1.5-1 .675-1 1.5m15 0c0 .825.45 1.5 1 1.5s1-.675 1-1.5-.45-1.5-1-1.5-1 .675-1 1.5m18.5-.5c.34.55.816 1 1.059 1s.441-.45.441-1-.477-1-1.059-1-.781.45-.441 1m15 0c.34.55.816 1 1.059 1s.441-.45.441-1-.477-1-1.059-1-.781.45-.441 1m160.579.583c.048 1.165.285 1.402.604.605.289-.722.253-1.585-.079-1.917-.332-.332-.568.258-.525 1.312M252 165.5c0 .825.45 1.5 1 1.5s1-.675 1-1.5-.45-1.5-1-1.5-1 .675-1 1.5" fill="#1976D2" fill-rule="evenodd"/></svg>